<svg width="65" height="18" viewBox="0 0 65 18" fill="none" xmlns="http://www.w3.org/2000/svg">
<path d="M0.48 13V5.272H3.06V13H0.48ZM4.01906 13V7.312H6.43106L6.49106 7.696C6.69906 7.56 6.98306 7.444 7.34306 7.348C7.70306 7.244 8.08706 7.192 8.49506 7.192C9.19106 7.192 9.69906 7.372 10.0191 7.732C10.3391 8.084 10.4991 8.624 10.4991 9.352V13H7.91906V9.652C7.91906 9.452 7.87506 9.312 7.78706 9.232C7.69906 9.144 7.55106 9.1 7.34306 9.1C7.21506 9.1 7.07906 9.132 6.93506 9.196C6.79906 9.26 6.68706 9.336 6.59906 9.424V13H4.01906ZM13.6384 13.12C13.1024 13.12 12.6344 13.028 12.2344 12.844C11.8344 12.66 11.5224 12.364 11.2984 11.956C11.0824 11.54 10.9744 10.996 10.9744 10.324C10.9744 9.62 11.1024 9.04 11.3584 8.584C11.6144 8.12 11.9544 7.772 12.3784 7.54C12.8104 7.308 13.2824 7.192 13.7944 7.192C14.0264 7.192 14.2544 7.216 14.4784 7.264C14.7104 7.312 14.9104 7.38 15.0784 7.468V4.912H17.6584V13H15.4264L15.3064 12.592C15.0824 12.76 14.8384 12.892 14.5744 12.988C14.3104 13.076 13.9984 13.12 13.6384 13.12ZM14.3824 11.272C14.5264 11.272 14.6544 11.248 14.7664 11.2C14.8784 11.152 14.9824 11.088 15.0784 11.008V9.292C14.8944 9.132 14.6624 9.052 14.3824 9.052C14.1024 9.052 13.9024 9.164 13.7824 9.388C13.6624 9.604 13.6024 9.92 13.6024 10.336C13.6024 10.752 13.6664 11.012 13.7944 11.116C13.9304 11.22 14.1264 11.272 14.3824 11.272ZM19.0406 6.7V4.888H21.8126V6.7H19.0406ZM19.2326 13V9.184H18.4286L18.6446 7.312H21.8126V13H19.2326Z" fill="#6E6E6E"/>
<path d="M26.948 13L23.636 4.744L23.06 4.624V4.504H27.68V4.624L26.816 4.732L29.288 10.876H29.444L29.468 10.816C29.676 10.288 29.836 9.768 29.948 9.256C30.06 8.736 30.116 8.26 30.116 7.828C30.116 7.068 29.96 6.412 29.648 5.86C29.344 5.308 28.904 4.896 28.328 4.624V4.504H32.696V4.624L32.084 4.744L28.772 13H26.948ZM34.8617 6.16C34.5417 6.16 34.2577 6.116 34.0097 6.028C33.7617 5.94 33.5657 5.816 33.4217 5.656C33.2857 5.496 33.2177 5.312 33.2177 5.104C33.2177 4.896 33.2857 4.716 33.4217 4.564C33.5657 4.404 33.7617 4.28 34.0097 4.192C34.2577 4.104 34.5417 4.06 34.8617 4.06C35.1897 4.06 35.4777 4.104 35.7257 4.192C35.9737 4.28 36.1657 4.404 36.3017 4.564C36.4457 4.716 36.5177 4.896 36.5177 5.104C36.5177 5.312 36.4457 5.496 36.3017 5.656C36.1657 5.816 35.9737 5.94 35.7257 6.028C35.4777 6.116 35.1897 6.16 34.8617 6.16ZM32.8817 13V12.88L33.4817 12.76V7.432H32.8817V7.3L36.3017 6.82V12.76L36.9017 12.88V13H32.8817ZM40.2313 13.18C39.8553 13.18 39.4913 13.144 39.1393 13.072C38.7873 13.008 38.4673 12.912 38.1793 12.784C37.8993 12.648 37.6753 12.484 37.5073 12.292C37.3473 12.1 37.2673 11.88 37.2673 11.632C37.2673 11.408 37.3353 11.228 37.4713 11.092C37.6073 10.956 37.7793 10.856 37.9873 10.792C38.2033 10.72 38.4233 10.684 38.6473 10.684C38.8873 10.684 39.1073 10.72 39.3073 10.792C39.5073 10.856 39.6673 10.956 39.7873 11.092C39.9153 11.228 39.9793 11.392 39.9793 11.584C39.9793 11.712 39.9593 11.828 39.9193 11.932C39.8793 12.036 39.8073 12.152 39.7033 12.28C39.5993 12.392 39.5273 12.488 39.4873 12.568C39.4473 12.64 39.4273 12.716 39.4273 12.796C39.4273 12.836 39.4473 12.88 39.4873 12.928C39.5273 12.976 39.5953 13.012 39.6913 13.036C39.7873 13.068 39.9193 13.084 40.0873 13.084C40.3113 13.084 40.5233 13.056 40.7233 13C40.9313 12.952 41.0993 12.868 41.2273 12.748C41.3553 12.628 41.4193 12.464 41.4193 12.256C41.4193 12.064 41.3633 11.888 41.2513 11.728C41.1393 11.568 40.9513 11.412 40.6873 11.26C40.4233 11.1 40.0633 10.928 39.6073 10.744C39.0393 10.504 38.5873 10.272 38.2513 10.048C37.9233 9.824 37.6873 9.592 37.5433 9.352C37.4073 9.112 37.3393 8.856 37.3393 8.584C37.3393 8.04 37.6193 7.612 38.1793 7.3C38.7393 6.98 39.4913 6.82 40.4353 6.82C40.9553 6.82 41.4353 6.88 41.8753 7C42.3233 7.12 42.6833 7.288 42.9553 7.504C43.2273 7.72 43.3633 7.98 43.3633 8.284C43.3633 8.484 43.2993 8.652 43.1713 8.788C43.0513 8.924 42.8913 9.028 42.6913 9.1C42.4993 9.164 42.2953 9.196 42.0793 9.196C41.9033 9.196 41.7313 9.176 41.5633 9.136C41.3953 9.096 41.2433 9.04 41.1073 8.968C40.9713 8.888 40.8593 8.792 40.7713 8.68C40.6913 8.56 40.6513 8.424 40.6513 8.272C40.6513 8.024 40.7673 7.792 40.9993 7.576C41.1273 7.456 41.2153 7.36 41.2633 7.288C41.3113 7.216 41.3353 7.152 41.3353 7.096C41.3353 7.072 41.3233 7.048 41.2993 7.024C41.2753 7 41.2353 6.98 41.1793 6.964C41.1233 6.948 41.0473 6.936 40.9513 6.928C40.8633 6.92 40.7513 6.916 40.6153 6.916C40.3913 6.916 40.1713 6.94 39.9553 6.988C39.7393 7.028 39.5593 7.1 39.4153 7.204C39.2793 7.3 39.2113 7.44 39.2113 7.624C39.2113 7.824 39.2993 8.008 39.4753 8.176C39.6513 8.344 39.8793 8.504 40.1593 8.656C40.4393 8.8 40.7393 8.944 41.0593 9.088C41.6673 9.36 42.1473 9.604 42.4993 9.82C42.8513 10.036 43.1033 10.248 43.2553 10.456C43.4073 10.664 43.4833 10.888 43.4833 11.128C43.4833 11.48 43.3873 11.784 43.1953 12.04C43.0113 12.296 42.7633 12.508 42.4513 12.676C42.1393 12.844 41.7913 12.968 41.4073 13.048C41.0233 13.136 40.6313 13.18 40.2313 13.18ZM46.2491 13.168C45.6411 13.168 45.1811 12.996 44.8691 12.652C44.5651 12.3 44.4131 11.772 44.4131 11.068V7.42H43.8131V7.3L47.2331 6.82V11.488C47.2331 11.736 47.2691 11.928 47.3411 12.064C47.4131 12.2 47.4971 12.268 47.5931 12.268C47.6971 12.268 47.8051 12.188 47.9171 12.028C48.0371 11.868 48.1531 11.652 48.2651 11.38C48.3771 11.108 48.4731 10.804 48.5531 10.468V7.42H47.9531V7.3L51.3731 6.82V12.568H51.9731V12.7L48.5531 13.18V11.212L48.4571 11.116C48.2091 11.828 47.9091 12.348 47.5571 12.676C47.2051 13.004 46.7691 13.168 46.2491 13.168ZM56.0697 6.82C56.6137 6.82 57.0817 6.868 57.4737 6.964C57.8657 7.052 58.1897 7.192 58.4457 7.384C58.7017 7.576 58.8897 7.816 59.0097 8.104C59.1297 8.384 59.1897 8.716 59.1897 9.1V12.616C59.1897 12.672 59.1977 12.724 59.2137 12.772C59.2377 12.812 59.2777 12.832 59.3337 12.832C59.3817 12.832 59.4457 12.816 59.5257 12.784C59.6057 12.752 59.7017 12.704 59.8137 12.64V12.76C59.7017 12.84 59.5617 12.912 59.3937 12.976C59.2257 13.04 59.0457 13.088 58.8537 13.12C58.6617 13.16 58.4737 13.18 58.2897 13.18C57.7137 13.18 57.2497 13.04 56.8977 12.76C56.5457 12.472 56.3697 11.992 56.3697 11.32C56.3697 11.304 56.3697 11.292 56.3697 11.284C56.3697 11.268 56.3697 11.252 56.3697 11.236C56.3697 11.212 56.3697 11.184 56.3697 11.152L56.2857 11.08C56.1417 11.408 55.9777 11.704 55.7937 11.968C55.6177 12.224 55.4217 12.444 55.2057 12.628C54.9977 12.804 54.7777 12.94 54.5457 13.036C54.3137 13.132 54.0737 13.18 53.8257 13.18C53.5137 13.18 53.2377 13.12 52.9977 13C52.7577 12.88 52.5657 12.716 52.4217 12.508C52.2857 12.3 52.2177 12.06 52.2177 11.788C52.2177 11.116 52.5817 10.592 53.3097 10.216C54.0457 9.84 55.0657 9.652 56.3697 9.652C56.3697 8.956 56.3377 8.424 56.2737 8.056C56.2177 7.68 56.0937 7.424 55.9017 7.288C55.7177 7.144 55.4337 7.072 55.0497 7.072C54.8577 7.072 54.6857 7.092 54.5337 7.132C54.3897 7.164 54.2737 7.204 54.1857 7.252C54.1057 7.3 54.0657 7.34 54.0657 7.372C54.0657 7.42 54.1217 7.472 54.2337 7.528C54.3457 7.584 54.5497 7.66 54.8457 7.756C55.4297 7.948 55.7217 8.24 55.7217 8.632C55.7217 8.976 55.5657 9.24 55.2537 9.424C54.9497 9.608 54.5617 9.7 54.0897 9.7C53.6257 9.7 53.2417 9.608 52.9377 9.424C52.6417 9.24 52.4937 8.976 52.4937 8.632C52.4937 8.408 52.5897 8.188 52.7817 7.972C52.9737 7.756 53.2377 7.564 53.5737 7.396C53.9097 7.22 54.2897 7.08 54.7137 6.976C55.1457 6.872 55.5977 6.82 56.0697 6.82ZM56.3697 9.772C55.9857 9.772 55.6777 9.872 55.4457 10.072C55.2137 10.272 55.0457 10.512 54.9417 10.792C54.8377 11.072 54.7857 11.332 54.7857 11.572C54.7857 11.716 54.7977 11.836 54.8217 11.932C54.8537 12.028 54.8937 12.1 54.9417 12.148C54.9977 12.196 55.0657 12.22 55.1457 12.22C55.2257 12.22 55.3137 12.192 55.4097 12.136C55.5057 12.08 55.6057 11.992 55.7097 11.872C55.8217 11.744 55.9337 11.58 56.0457 11.38C56.1577 11.172 56.2657 10.92 56.3697 10.624V9.772ZM63.4189 12.76L64.0189 12.88V13H59.9989V12.88L60.5989 12.76V4.672H59.9989V4.54L63.4189 4.06V12.76Z" fill="url(#paint0_angular_70_10617)"/>
<defs>
<radialGradient id="paint0_angular_70_10617" cx="0" cy="0" r="1" gradientUnits="userSpaceOnUse" gradientTransform="translate(44 9) rotate(90) scale(8 21)">
<stop stop-color="#2054DD"/>
<stop offset="0.463548" stop-color="#2A8B9D"/>
<stop offset="0.569624" stop-color="#2C988F"/>
<stop offset="0.790839" stop-color="#30B073"/>
<stop offset="0.959308" stop-color="#33C25E"/>
<stop offset="1" stop-color="#34C759"/>
</radialGradient>
</defs>
</svg>
