<svg width="433" height="72" viewBox="0 0 433 72" fill="none" xmlns="http://www.w3.org/2000/svg">
<path d="M8.5 5.95801V71.0205H0V5.95801H8.5Z" fill="#004AAD"/>
<path d="M47.8737 18.9375C54.0924 18.9375 59.1341 20.8229 62.9987 24.5833C66.8581 28.349 68.7904 33.7812 68.7904 40.875V71.0208H60.3737V42.0833C60.3737 36.9896 59.0924 33.0833 56.5404 30.375C53.9987 27.6667 50.5195 26.3125 46.1029 26.3125C41.6133 26.3125 38.0508 27.7188 35.4154 30.5208C32.7747 33.3125 31.457 37.3906 31.457 42.75V71.0208H22.957V19.875H31.457V27.1458C33.1341 24.5365 35.4206 22.5156 38.3112 21.0833C41.1966 19.6562 44.3841 18.9375 47.8737 18.9375Z" fill="#004AAD"/>
<path d="M79.5234 45.2705C79.5234 40.0361 80.5755 35.4476 82.6901 31.4997C84.7995 27.5413 87.7005 24.4788 91.3984 22.3122C95.1068 20.1351 99.263 19.0413 103.878 19.0413C107.862 19.0413 111.565 19.958 114.982 21.7913C118.398 23.6247 121.008 26.0361 122.815 29.0205V1.95801H131.419V71.0205H122.815V61.4163C121.133 64.458 118.648 66.958 115.357 68.9163C112.065 70.8747 108.201 71.8538 103.773 71.8538C99.2318 71.8538 95.1068 70.7393 91.3984 68.4997C87.7005 66.2653 84.7995 63.1247 82.6901 59.083C80.5755 55.0309 79.5234 50.4268 79.5234 45.2705ZM122.815 45.3538C122.815 41.4945 122.034 38.1351 120.482 35.2705C118.924 32.4111 116.826 30.2236 114.19 28.708C111.549 27.182 108.638 26.4163 105.461 26.4163C102.294 26.4163 99.3984 27.1663 96.7734 28.6663C94.1589 30.1559 92.0755 32.3278 90.5234 35.1872C88.9661 38.0518 88.1901 41.4111 88.1901 45.2705C88.1901 49.1872 88.9661 52.5934 90.5234 55.4788C92.0755 58.3695 94.1589 60.5778 96.7734 62.1038C99.3984 63.6351 102.294 64.3955 105.461 64.3955C108.638 64.3955 111.549 63.6351 114.19 62.1038C116.826 60.5778 118.924 58.3695 120.482 55.4788C122.034 52.5934 122.815 49.2184 122.815 45.3538Z" fill="#004AAD"/>
<path d="M150.174 11.5625C148.549 11.5625 147.174 11.0104 146.049 9.89583C144.935 8.77083 144.383 7.39583 144.383 5.77083C144.383 4.16146 144.935 2.80208 146.049 1.6875C147.174 0.5625 148.549 0 150.174 0C151.727 0 153.049 0.5625 154.133 1.6875C155.216 2.80208 155.758 4.16146 155.758 5.77083C155.758 7.39583 155.216 8.77083 154.133 9.89583C153.049 11.0104 151.727 11.5625 150.174 11.5625ZM154.279 19.875V71.0208H145.779V19.875H154.279Z" fill="#004AAD"/>
<path d="M200.634 70.5645H190.342L167.238 3.93945H175.572L195.134 60.7728H196.259L215.592 3.93945H223.801L200.634 70.5645Z" fill="#5271FF"/>
<path d="M239.095 10.5856C237.522 10.5856 236.241 10.096 235.241 9.10645C234.251 8.12207 233.762 6.87207 233.762 5.35645C233.762 3.8304 234.251 2.57519 235.241 1.58561C236.241 0.601237 237.522 0.106445 239.095 0.106445C240.678 0.106445 241.96 0.601237 242.949 1.58561C243.934 2.57519 244.428 3.8304 244.428 5.35645C244.428 6.87207 243.934 8.12207 242.949 9.10645C241.96 10.096 240.678 10.5856 239.095 10.5856ZM235.366 70.5648V20.2939H242.803V70.5648H235.366Z" fill="#5271FF"/>
<path d="M274.457 71.5225C271.301 71.5225 268.379 71.1058 265.686 70.2725C263.004 69.4391 260.733 68.2933 258.874 66.835C257.025 65.3766 255.717 63.7308 254.957 61.8975L259.332 57.3558H260.29C261.926 59.8454 263.9 61.7204 266.207 62.9808C268.525 64.2464 271.275 64.8766 274.457 64.8766C278.165 64.8766 280.983 64.1579 282.915 62.71C284.842 61.2673 285.811 59.2516 285.811 56.6683C285.811 54.6995 285.228 53.0641 284.061 51.7725C282.895 50.4808 280.999 49.5173 278.374 48.8766L269.915 46.7725C265.384 45.6787 262.082 43.9495 259.999 41.585C257.915 39.21 256.874 36.2829 256.874 32.7933C256.874 30.0589 257.566 27.6839 258.957 25.6683C260.358 23.6423 262.374 22.0798 264.999 20.9808C267.634 19.887 270.759 19.335 274.374 19.335C278.983 19.335 282.613 19.9808 285.27 21.2725C287.936 22.5641 290.009 24.3662 291.499 26.6683L287.311 30.7725H286.395C284.796 28.9287 283.046 27.5954 281.145 26.7725C279.238 25.9548 276.983 25.5433 274.374 25.5433C271.066 25.5433 268.53 26.137 266.77 27.3141C265.004 28.4964 264.124 30.21 264.124 32.46C264.124 34.5016 264.738 36.1475 265.978 37.3975C267.228 38.637 269.4 39.637 272.499 40.3975L280.853 42.3975C285.228 43.4287 288.384 45.1423 290.332 47.5433C292.275 49.9495 293.249 52.9548 293.249 56.5641C293.249 59.5225 292.546 62.1266 291.145 64.3766C289.738 66.6162 287.624 68.3662 284.79 69.6266C281.967 70.887 278.525 71.5225 274.457 71.5225Z" fill="#5271FF"/>
<path d="M322.858 71.5231C317.176 71.5231 312.947 70.0231 310.171 67.0231C307.389 64.0127 306.004 59.6012 306.004 53.7939V20.2939H313.421V53.6064C313.421 61.2314 317.009 65.0439 324.191 65.0439C328.743 65.0439 332.342 63.5596 334.983 60.5856C337.618 57.6169 338.941 52.7835 338.941 46.0856V20.2939H346.379V70.5648H339.358V62.6898L338.4 62.4606C336.66 65.5335 334.587 67.8096 332.171 69.2939C329.764 70.7783 326.66 71.5231 322.858 71.5231Z" fill="#5271FF"/>
<path d="M375.853 71.5225C370.905 71.5225 367.04 70.2308 364.249 67.6475C361.467 65.0641 360.082 61.3714 360.082 56.5641C360.082 53.5954 360.697 51.085 361.936 49.0433C363.171 46.9912 365.082 45.3141 367.665 44.0225C370.249 42.7308 373.613 41.7308 377.77 41.0225C381.421 40.4287 384.191 39.7464 386.082 38.9808C387.983 38.2204 389.259 37.3714 389.915 36.4391C390.566 35.4964 390.895 34.3089 390.895 32.8766C390.895 30.6006 390.108 28.8558 388.54 27.6475C386.983 26.4287 384.478 25.8141 381.02 25.8141C377.754 25.8141 374.962 26.4495 372.645 27.71C370.322 28.96 368.191 30.835 366.249 33.335H365.332L361.686 28.1891C363.811 25.4808 366.509 23.3298 369.79 21.7308C373.082 20.137 376.822 19.335 381.02 19.335C386.936 19.335 391.296 20.637 394.103 23.2308C396.921 25.8298 398.332 29.4287 398.332 34.0225V60.6683C398.332 63.4756 399.509 64.8766 401.874 64.8766C402.665 64.8766 403.426 64.7412 404.165 64.46L404.79 64.6475L405.665 69.7933C405.124 70.1579 404.4 70.4339 403.499 70.6266C402.608 70.835 401.691 70.9391 400.749 70.9391C397.983 70.9391 395.895 70.3298 394.478 69.1058C393.061 67.887 392.155 66.0954 391.77 63.7308L390.811 63.6266C389.379 66.2829 387.447 68.262 385.02 69.5641C382.587 70.8662 379.53 71.5225 375.853 71.5225ZM377.499 65.6058C380.29 65.6058 382.712 64.96 384.77 63.6683C386.822 62.3766 388.395 60.5641 389.478 58.2308C390.572 55.887 391.124 53.1787 391.124 50.1058V43.7308L390.27 43.5433C389.145 44.335 387.775 44.9964 386.165 45.5225C384.551 46.0537 382.301 46.5329 379.415 46.96C376.499 47.3506 374.176 47.9548 372.457 48.7725C370.749 49.5954 369.525 50.637 368.79 51.8975C368.066 53.1631 367.707 54.7204 367.707 56.5641C367.707 59.5225 368.566 61.7725 370.29 63.3141C372.025 64.8454 374.426 65.6058 377.499 65.6058Z" fill="#5271FF"/>
<path d="M427.117 71.5231C423.56 71.5231 420.763 70.5179 418.721 68.5023C416.69 66.4762 415.68 63.4554 415.68 59.4398V0.106445H423.117V58.9398C423.117 61.0387 423.518 62.5544 424.326 63.4814C425.128 64.4137 426.378 64.8773 428.076 64.8773C429.117 64.8773 430.164 64.7054 431.221 64.3564L431.867 64.5439L432.721 70.3773C432.18 70.7523 431.393 71.0335 430.367 71.2314C429.352 71.4242 428.268 71.5231 427.117 71.5231Z" fill="#5271FF"/>
</svg>
